<svg width="23" height="23" xmlns="http://www.w3.org/2000/svg" xmlns:xlink="http://www.w3.org/1999/xlink"><defs><path d="M5.8 19l1.5-1a.4.4 0 01.2-.1h7.1a.4.4 0 01.2 0l1.5 1.1.3-1 .1-.2c.7-.8 1.1-1.6 1.4-2.4l.5-1.8H3.5c0 .2 0 .9.4 1.8.3 1 .8 1.9 1.4 2.4l.1.2.4 1zm9.9-8v-.5a.4.4 0 11.8 0v.4h.2V4.7A1.8 1.8 0 0014.9 3h-.3a1.6 1.6 0 00-1.4 1 1.9 1.9 0 011.4 1.8c0 1.4-3.8 1.4-3.8 0a1.9 1.9 0 011.5-1.9 2.4 2.4 0 012.3-1.7h.3a2.6 2.6 0 012.6 2.6V11h.2v-.4a.4.4 0 11.8 0v.4h.5a1.3 1.3 0 01.4 2.7c0 .5-.2 1.2-.5 2-.3 1-.8 1.8-1.6 2.6l-.4 1.6a.4.4 0 01-.7.2l-1.7-1.3H7.6L6 20a.4.4 0 01-.7-.2l-.5-1.5a6.3 6.3 0 01-1.6-2.7c-.3-.9-.4-1.6-.4-2a1.3 1.3 0 01.3-2.7h12.7zM3 11.6a.5.5 0 000 1.1h16a.5.5 0 100-1H3zm10.8-6a1.1 1.1 0 00-2.2 0c0 .3 2.2.3 2.2 0z" id="a"/></defs><g fill="none" fill-rule="evenodd"><mask id="b" fill="#fff"><use xlink:href="#a"/></mask><use fill="#333" fill-rule="nonzero" xlink:href="#a"/><g mask="url(#b)" fill="#292F37"><path d="M0 0h23v23H0z"/></g></g></svg>