<svg width="22" height="21" fill="none" xmlns="http://www.w3.org/2000/svg"><path d="M9.6 20.9c-.7 0-1.2-.2-1.5-.4-.3.2-.8.4-1.5.4s-1.2-.2-1.5-.4c-.3.2-.8.4-1.5.4-1.2 0-1.8-.6-1.8-.6l-.1-.3V3h.8v16.8c.2.1.5.3 1 .3.9 0 1.3-.4 1.3-.4.2-.1.4-.2.6 0 0 0 .4.4 1.2.4.8 0 1.2-.4 1.2-.4 0-.1.4-.2.5 0 0 0 .4.4 1.1.4.5 0 1-.2 1.1-.3V3h.8v17.3s-.7.6-1.8.6z" fill="#333"/><path fill-rule="evenodd" clip-rule="evenodd" d="M12 2.7a.4.4 0 00-.3.5c.4 1.4 1.6 5.3 5.1 7a.4.4 0 00.4-.6C14 7.9 12.9 4.4 12.5 3a.4.4 0 00-.5-.3zm5.7 9a.4.4 0 00-.5.2c-1 1.6-1.6 3.2-2 4.4a27 27 0 00-.6 2v.1l.4.1-.2.3a3.6 3.6 0 001.2.5.4.4 0 10.2-.8 3.6 3.6 0 01-.7-.2V18a26.4 26.4 0 012.3-5.7.4.4 0 00-.1-.6zM15 18.5l-.2.3a.4.4 0 01-.2-.4l.4.1zm1-15.9a.4.4 0 00-.4.4 13.2 13.2 0 00.3 3.2c.3 1.4 1 2.9 2.2 4a.4.4 0 00.5-.5c-1-1-1.6-2.4-1.9-3.6a12.4 12.4 0 01-.3-3 .4.4 0 00-.4-.5zm4 0a.4.4 0 00-.4.4v16.8a1.6 1.6 0 01-.2 0c-.2.2-.5.3-.9.3a2 2 0 01-1-.2 147.7 147.7 0 01.4-2.5l1-5.3a.4.4 0 10-.7-.2l-1.1 5.3a158.8 158.8 0 00-.5 2.5v.2l.4.1a47.2 47.2 0 00-.3.3 1 1 0 00.2.1l.3.2c.3.2.7.3 1.3.3.6 0 1-.1 1.3-.3a2.2 2.2 0 00.4-.3L20 20l.3.3a.4.4 0 00.1-.3V3a.4.4 0 00-.4-.4zM17 20l-.3.3a.4.4 0 010-.4l.3.1z" fill="#333"/><path d="M18.4 10H17v2h1.4" stroke="#333" stroke-width=".8" stroke-linecap="round" stroke-linejoin="round"/><path fill-rule="evenodd" clip-rule="evenodd" d="M8 9.6a.4.4 0 00-.4.4v8.5a.4.4 0 00.8 0V10a.4.4 0 00-.4-.4zM5 6.1a.4.4 0 00-.4.4v12a.4.4 0 00.8 0v-12a.4.4 0 00-.4-.4zM21.4 2A1.4 1.4 0 0020 .6H2a1.4 1.4 0 000 2.8h18A1.4 1.4 0 0021.4 2zM20 1.4a.6.6 0 110 1.2H2a.6.6 0 010-1.2h18z" fill="#333"/></svg>