<svg width="24" height="24" fill="none" xmlns="http://www.w3.org/2000/svg"><path fill-rule="evenodd" clip-rule="evenodd" d="M10.1 1.5a.1.1 0 01.1 0l3 1.1a.1.1 0 010 .2l-2.7 2.8a.1.1 0 01-.2 0l-1-3.3.8-.8zM8.7 3l-4 4a.1.1 0 000 .1l2.6 2.5h15.2a.9.9 0 01.9.9v2a.9.9 0 01-.9.9h-1.1v9.1a.9.9 0 01-.9.9h-6a.9.9 0 01-.9-.9v-9.1H5.4v9.1a.9.9 0 01-.9.9h-1a.9.9 0 01-.9-.9v-9.1H1.5a.9.9 0 01-.9-.9v-2a.9.9 0 01.9-.9h4.6l-2-1.9a.9.9 0 010-1.3L9.5 1a.9.9 0 011-.2l3 1.2a.9.9 0 01.3 1.5L11 6a.9.9 0 01-1.5-.3L8.6 3zm4.9 9.6h8.9a.1.1 0 00.1-.1v-2a.1.1 0 00-.1-.1h-21a.1.1 0 00-.1.1v2a.1.1 0 00.1.1h12.1zm.8.8v9.1a.1.1 0 00.1.1h6a.1.1 0 00.1-.1v-9.1h-6.2zm-11 0h1.2v9.1a.1.1 0 01-.1.1h-1a.1.1 0 01-.1-.1v-9.1zm12.1 4.2a.4.4 0 000 .8h4a.4.4 0 000-.8h-4zm1.1-2.1c0-.2.2-.4.4-.4h1a.4.4 0 010 .8h-1a.4.4 0 01-.4-.4zm.4 4.6a.4.4 0 000 .8h1a.4.4 0 000-.8h-1z" fill="#333"/></svg>