<svg width="24" height="24" fill="none" xmlns="http://www.w3.org/2000/svg"><path d="M14 8c.5-1 .8-2 .8-2.8 0-1.7-3.2-2.3-5-2.3-1.8 0-3.3.6-3.3 2.3 0 1 .9 2.1 2 3.1m6 8.4c.7.8 1.5 1.6 2.2 1.9 1.6.7 3.4-2 4.2-3.6.8-1.6 1-3.1-.7-4-.8-.3-2.3 0-3.6.5M6.4 12.6c-1 0-2.1.3-2.8.8-1.5 1-.2 4 .7 5.4 1 1.6 2.2 2.5 3.7 1.6.8-.5 1.3-1.9 1.6-3.3" stroke="#333" stroke-width=".8" stroke-linecap="round"/><path clip-rule="evenodd" d="M11.6 16.3a3.8 3.8 0 100-7.5 3.8 3.8 0 000 7.5z" stroke="#333" stroke-width=".8"/><path clip-rule="evenodd" d="M11.6 14a1.5 1.5 0 100-3 1.5 1.5 0 000 3z" stroke="#333" stroke-width=".8"/></svg>