<svg width="23" height="23" xmlns="http://www.w3.org/2000/svg" xmlns:xlink="http://www.w3.org/1999/xlink"><defs><path d="M6.4 10.7l3.5.6c1.8.6 3.3 1 4.6 1a4.3 4.3 0 100-8.6 15 15 0 00-4.6 1l-3.5.5v5.5zm-.8 0V5.2l-1.4.2a.6.6 0 00-.5.6v3.8a.6.6 0 00.5.6l1.4.1zm6.2 3l.2-1a23.2 23.2 0 01-2.3-.6 33 33 0 00-5.6-.8A1.4 1.4 0 013 9.9V6A1.4 1.4 0 014 4.7c3-.3 4.8-.6 5.6-.9 1.8-.6 3.4-1 4.8-1a5 5 0 012.2 9.7l-1 5.7a2.4 2.4 0 01-2.4 2.3c-1.3 0-2.4-1-2.4-2.4l.4-1.8H11c-.6 0-1.1-.6-1.1-1.3 0-.7.5-1.3 1.1-1.3h.7zm-.2.8h-.5c-.1 0-.3.2-.3.5s.2.5.3.5h.3l.2-1zm4.2-1.6a5 5 0 01-1.3.1l-1.8-.1-1 5.3c0 .8.7 1.5 1.6 1.5.8 0 1.5-.7 1.5-1.6l1-5.2zm.2-8.1a.4.4 0 01.6.5A4.3 4.3 0 0015.5 8c0 1 .3 1.9.9 2.6a.4.4 0 11-.7.5 5 5 0 01-1-3A5 5 0 0116 4.7z" id="a"/></defs><g fill="none" fill-rule="evenodd"><mask id="b" fill="#fff"><use xlink:href="#a"/></mask><use fill="#333" fill-rule="nonzero" xlink:href="#a"/><g mask="url(#b)" fill="#292F37"><path d="M0 0h23v23H0z"/></g></g></svg>