<svg width="24" height="24" fill="none" xmlns="http://www.w3.org/2000/svg"><path fill-rule="evenodd" clip-rule="evenodd" d="M11.3.7a.4.4 0 10-.6.6l.5.5a1 1 0 010 1.4 1.8 1.8 0 000 2.6l.5.5a.4.4 0 10.6-.6l-.5-.5a1 1 0 010-1.4 1.8 1.8 0 000-2.6l-.5-.5zM3.6 9.5a1.9 1.9 0 013.8 0v.1h2.2v-.1a1.9 1.9 0 013.8 0v.1h2.2v-.1a1.9 1.9 0 013.8 0v.1h1.1a.1.1 0 00.1-.1.9.9 0 01.9-.9h.3c.6 0 1.1.5 1.1 1.1v2.6a1.1 1.1 0 01-1.1 1.1h-.3a.9.9 0 01-.9-.9.1.1 0 00-.1-.1h-1.1v6.2h1.1a.1.1 0 00.1-.1.9.9 0 01.9-.9h.3c.6 0 1.1.5 1.1 1.1v2.6a1.1 1.1 0 01-1.1 1.1h-.3a.9.9 0 01-.9-.9.1.1 0 00-.1-.1h-1.1v.1a1.9 1.9 0 01-3.8 0v-.1h-2.2v.1a1.9 1.9 0 01-3.8 0v-.1H7.4v.1a1.9 1.9 0 01-3.8 0v-.1H2.5a1.4 1.4 0 110-2.8h1.1v-6.2H2.5a1.4 1.4 0 110-2.8h1.1v-.1zm9.8.9h2.2v1.2h-2.2v-1.2zm0 2h2.2v6.2h-2.2v-6.2zm0 7h2.2v1.2h-2.2v-1.2zm7.1-7.8h-1.1v-1.2h1.1a.9.9 0 00.9-.9.1.1 0 01.1-.1h.3a.3.3 0 01.3.3v2.5a.3.3 0 01-.3.4h-.3a.1.1 0 01-.1-.1.9.9 0 00-.9-.9zm0 9h-1.1v-1.2h1.1a.9.9 0 00.9-.9.1.1 0 01.1-.1h.3a.3.3 0 01.3.3v2.6a.3.3 0 01-.3.3h-.3a.1.1 0 01-.1-.1.9.9 0 00-.9-.9zM9.6 19.4H7.4v1.2h2.2v-1.2zm0-.8v-6.2H7.4v6.2h2.2zm0-7v-1.2H7.4v1.2h2.2zm-7.1 7.8h1.1v1.2H2.5a.6.6 0 110-1.2zm1.1-9v1.2H2.5a.6.6 0 110-1.2h1.1zm1.9-2a1.1 1.1 0 00-1.1 1.1v12a1.1 1.1 0 002.2 0v-12a1.1 1.1 0 00-1.1-1.1zm4.9 1.1a1.1 1.1 0 012.2 0v12a1.1 1.1 0 01-2.2 0v-12zm7.1-1.1a1.1 1.1 0 00-1.1 1.1v12a1.1 1.1 0 002.2 0v-12a1.1 1.1 0 00-1.1-1.1zm-2.8-7.2a.4.4 0 01.6 0l.5.5a1.8 1.8 0 010 2.6 1 1 0 000 1.4l.5.5a.4.4 0 11-.6.6l-.5-.5a1.8 1.8 0 010-2.6 1 1 0 000-1.4l-.5-.5a.4.4 0 010-.6zm-7.4 0a.4.4 0 10-.6.6l.5.5a1 1 0 010 1.4 1.8 1.8 0 000 2.6l.5.5a.4.4 0 10.6-.6l-.5-.5a1 1 0 010-1.4 1.8 1.8 0 000-2.6l-.5-.5z" fill="#333"/></svg>