<svg width="23" height="23" xmlns="http://www.w3.org/2000/svg" xmlns:xlink="http://www.w3.org/1999/xlink"><defs><path d="M6.3 3.8L3 7.5a.1.1 0 00.1.3h8.7a.1.1 0 00.1-.3L8.7 3.8H6.3zm.2-.7h2V1.5a.1.1 0 00-.2-.1H6.6a.1.1 0 000 .1v1.6zM1.2 19.5a.6.6 0 11-1.2-.2.6.6 0 011.2.2zm5.4-9.3a.6.6 0 11-1.2 0 .6.6 0 011.2 0zm-.2 3.1a.6.6 0 11-1.2 0 .6.6 0 011.2 0zM6 16.4a.6.6 0 11-1.2 0 .6.6 0 011.2 0zm-.3 3.3a.6.6 0 11-1.2 0 .6.6 0 011.2 0zm-2-9.4a.6.6 0 11-1.2-.2.6.6 0 011.2.2zm-.8 3a.6.6 0 11-1.2-.2.6.6 0 011.1.2zm-1 3a.6.6 0 11-1-.2.6.6 0 011 .2zm6.1-6.1a.6.6 0 111.2 0 .6.6 0 01-1.2 0zm.3 3.1a.6.6 0 111.2 0 .6.6 0 01-1.2 0zm.3 3.1a.6.6 0 111.2 0 .6.6 0 01-1.2 0zm.3 3.3a.6.6 0 111.2 0 .6.6 0 01-1.2 0zm2-9.4a.6.6 0 111.1-.2.6.6 0 01-1.1.2zm.8 3a.6.6 0 111.2-.2.6.6 0 01-1.2.2zm.9 3a.6.6 0 111.2-.2.6.6 0 01-1.2.2zm.9 3.2a.6.6 0 111.2-.2.6.6 0 01-1.2.2zM9.2 3.3L12.5 7a.9.9 0 01-.7 1.4H3.1a.9.9 0 01-.6-1.4l3.3-3.8V1.5c0-.5.4-.9.8-.9h1.7c.5 0 .9.4.9.9v1.8zM4.9 7.2c-.2 0-.3-.2-.3-.4s.1-.4.3-.4h5.2c.2 0 .3.2.3.4s-.1.4-.3.4H4.9z" id="a"/></defs><g transform="translate(4 1)" fill="none" fill-rule="evenodd"><mask id="b" fill="#fff"><use xlink:href="#a"/></mask><use fill="#292F37" xlink:href="#a"/><g mask="url(#b)" fill="#292F37"><path d="M-4-1h23v23H-4z"/></g></g></svg>