<svg width="23" height="23" xmlns="http://www.w3.org/2000/svg" xmlns:xlink="http://www.w3.org/1999/xlink"><defs><path d="M4 4.4a.6.6 0 00-.6.6v9a.6.6 0 00.6.6h12a.6.6 0 00.6-.6V5a.6.6 0 00-.6-.6H4zm16 .3l-.7.7a.4.4 0 11-.6-.6l1.4-1.4a.4.4 0 01.6 0l1.4 1.4a.4.4 0 11-.6.6l-.7-.7v9.5l.7-.8a.4.4 0 01.6.6l-1.4 1.4a.4.4 0 01-.6 0L18.7 14a.4.4 0 01.6-.6l.7.7V4.7zm-3.5 14.1H3.9l.8.7a.4.4 0 11-.6.6l-1.4-1.4a.4.4 0 010-.6l1.4-1.4a.4.4 0 01.6.6L4 18h12.4l-.7-.7a.4.4 0 01.6-.6l1.4 1.4a.4.4 0 010 .6l-1.4 1.4a.4.4 0 11-.6-.6l.8-.7zM4 3.6h12A1.4 1.4 0 0117.4 5v9a1.4 1.4 0 01-1.4 1.4H4A1.4 1.4 0 012.6 14V5A1.4 1.4 0 014 3.6z" id="a"/></defs><g fill="none" fill-rule="evenodd"><mask id="b" fill="#fff"><use xlink:href="#a"/></mask><use fill="#292F37" fill-rule="nonzero" xlink:href="#a"/><g mask="url(#b)" fill="#292F37"><path d="M0 0h23v23H0z"/></g></g></svg>