<svg width="19" height="20" xmlns="http://www.w3.org/2000/svg" xmlns:xlink="http://www.w3.org/1999/xlink"><defs><path d="M18 7.7zm-1.4 9.7L15.6 6 7 4.7l-2.4-.4a9.5 9.5 0 012.2 4.2v.1l-1.1 8.8h11zm.1.8H5.6L5.3 20H17l-.2-1.8zM15 5.2a4.3 4.3 0 00-4-2.6c-1 0-2 .5-2.8 1.4L15 5.1zM7.3 3.8a4.4 4.4 0 013.8-2.1c2.2 0 4.1 1.4 4.8 3.5h.1a.4.4 0 01.4.3l1.3 14.7a.4.4 0 01-.4.5H4.9a.4.4 0 01-.4-.5L6 8.6A9.4 9.4 0 003.3 4a.4.4 0 01.3-.7L7 4h.3zm10.2 4a.4.4 0 110-.7h.7c.3 0 .5.1.6.4l.6 4c0 .2.2.3.4.3h.2a.4.4 0 00.3-.4l-.7-4.3a1.1 1.1 0 00-1-1h-1.3a.4.4 0 010-.8h1.2c1 0 1.8.7 2 1.7l.6 4.3c0 .6-.4 1.2-1 1.3h-.3a1.2 1.2 0 01-1.2-1L18 8h-.5zm-6.3-1c.7 0 1.2.5 1.2 1.2v6.4a1.2 1.2 0 01-2.4 0V8c0-.7.6-1.2 1.2-1.2zm0 .8a.4.4 0 00-.4.4v6.4a.4.4 0 00.8 0V8a.4.4 0 00-.4-.4z" id="a"/></defs><g transform="translate(-3 -1)" fill="none" fill-rule="evenodd"><mask id="b" fill="#fff"><use xlink:href="#a"/></mask><use fill="#333" fill-rule="nonzero" xlink:href="#a"/><g mask="url(#b)" fill="#292F37"><path d="M0 0h23v23H0z"/></g></g></svg>