<svg width="24" height="24" fill="none" xmlns="http://www.w3.org/2000/svg"><path d="M20 21.4H4A2.4 2.4 0 011.6 19V5.5a2 2 0 011.9-1.9c.2 0 .4.2.4.4s-.2.4-.4.4c-.6 0-1.1.5-1.1 1.1V19c0 .9.7 1.6 1.6 1.6h16c.9 0 1.6-.7 1.6-1.6V6c0-.9-.7-1.6-1.6-1.6h-9.5c-.2 0-.4-.2-.4-.4s.2-.4.4-.4H20c1.3 0 2.4 1.1 2.4 2.4v13c0 1.3-1.1 2.4-2.4 2.4z" fill="#333"/><path d="M8 18.4H6c-.8 0-1.4-.6-1.4-1.4V4c0-.8.6-1.4 1.4-1.4h2c.8 0 1.4.6 1.4 1.4v13c0 .8-.6 1.4-1.4 1.4zm-2-15c-.3 0-.6.3-.6.6v13c0 .3.3.6.6.6h2c.3 0 .6-.3.6-.6V4c0-.3-.3-.6-.6-.6H6zM12 7v-.4c-.2 0-.4.2-.4.4h.4zm7 0h.4c0-.2-.2-.4-.4-.4V7zm0 4v.4c.2 0 .4-.2.4-.4H19zm-7 0h-.4c0 .2.2.4.4.4V11zm0-3.6h7v-.8h-7v.8zm6.6-.4v4h.8V7h-.8zm.4 3.6h-7v.8h7v-.8zm-6.6.4V7h-.8v4h.8zm.1 2h.8c.3 0 .5.2.5.5s-.2.5-.5.5h-.8c-.3 0-.5-.2-.5-.5s.2-.5.5-.5zm0 2h.8c.3 0 .5.2.5.5s-.2.5-.5.5h-.8c-.3 0-.5-.2-.5-.5s.2-.5.5-.5zm0 2h.8c.3 0 .5.2.5.5s-.2.5-.5.5h-.8c-.3 0-.5-.2-.5-.5s.2-.5.5-.5zm2.6-4h.8c.3 0 .5.2.5.5s-.2.5-.5.5h-.8c-.3 0-.5-.2-.5-.5s.2-.5.5-.5zm0 2h.8c.3 0 .5.2.5.5s-.2.5-.5.5h-.8c-.3 0-.5-.2-.5-.5s.2-.5.5-.5zm0 2h.8c.3 0 .5.2.5.5s-.2.5-.5.5h-.8c-.3 0-.5-.2-.5-.5s.2-.5.5-.5zm2.7-4h.8c.3 0 .5.2.5.5s-.2.5-.5.5h-.8c-.3 0-.5-.2-.5-.5-.1-.3.2-.5.5-.5zm0 2h.8c.3 0 .5.2.5.5s-.2.5-.5.5h-.8c-.3 0-.5-.2-.5-.5-.1-.3.2-.5.5-.5zm0 2h.8c.3 0 .5.2.5.5s-.2.5-.5.5h-.8c-.3 0-.5-.2-.5-.5-.1-.3.2-.5.5-.5z" fill="#333"/></svg>