<svg width="23" height="23" xmlns="http://www.w3.org/2000/svg" xmlns:xlink="http://www.w3.org/1999/xlink"><defs><path d="M19.8 3.3a.4.4 0 110-.8.4.4 0 010 .8zm-4 13.2h-.7V3.3h.8v13.2zM4.6 19.6v-1.5c.6.3 1.7.5 2.7.5.7 0 1.4-.4 2-.7.6-.4 1.2-.7 1.6-.7 1 0 1.3.3 1.7.7.4.3.9.7 1.8.7v1H4.5zM4.5 2a.6.6 0 01.7-.6h9.2a1.1 1.1 0 000 .4v13.4c-.6 0-.9-.3-1.2-.6-.5-.4-1-.8-2.2-.8-.7 0-1.4.4-2 .8-.6.3-1.2.6-1.7.6a5 5 0 01-2.7-.6V2zm0 15.2v-1.8l.5.2a7 7 0 002.3.4c.7 0 1.4-.4 2-.8.6-.3 1.2-.6 1.7-.6 1 0 1.3.3 1.7.6.4.3.9.6 1.6.7v2c-.6 0-1-.3-1.3-.6a3 3 0 00-2.2-.8c-.6 0-1.3.3-2 .7-.5.3-1 .7-1.6.7-1.7 0-2.6-.6-2.6-.7zM16 2.5H15v-.7c0-.2.1-.4.4-.4a.4.4 0 01.4.4v.7zm-14.7.8a.4.4 0 110-.8.4.4 0 010 .8zm18.6-1.5c-.5 0-1 .3-1 .7h-2.2v-.7c0-.7-.5-1.2-1.1-1.2h-.1H5.2A1.4 1.4 0 003.8 2v.5H2.3A1.1 1.1 0 000 3c0 .7.6 1.2 1.2 1.2.5 0 1-.4 1-.8h1.6V20c0 .2.2.4.4.4h10.5a.4.4 0 00.4-.4v-2.8h1.1a.4.4 0 00.4-.4V3.3h2.1c.2.4.6.8 1.1.8a1.2 1.2 0 000-2.3z" id="a"/></defs><g transform="translate(1 1)" fill="none" fill-rule="evenodd"><mask id="b" fill="#fff"><use xlink:href="#a"/></mask><use fill="#292F37" xlink:href="#a"/><g mask="url(#b)" fill="#292F37"><path d="M-1-1h23v23H-1z"/></g></g></svg>