<svg width="23" height="23" xmlns="http://www.w3.org/2000/svg" xmlns:xlink="http://www.w3.org/1999/xlink"><defs><path d="M10 10V8a.4.4 0 11.8 0v5a.4.4 0 11-.8 0v-2.2H7.5v2.1a.4.4 0 11-.8 0V8a.4.4 0 11.8 0v2H10zm4 8.4a.4.4 0 01.6-.4l1.4 2a.4.4 0 01-.4.6H7.3a.4.4 0 01-.3-.7l1.4-2a.4.4 0 11.7.5l-1 1.4H15l-1-1.4zm4.7-1.2H4.3c-1.2 0-2.2-1-2.2-2.3V5.7c0-1.2 1-2.3 2.2-2.3h14.4c1.2 0 2.2 1 2.2 2.3V15c0 1.2-1 2.3-2.2 2.3zm0-.8c.7 0 1.4-.7 1.4-1.5V5.7c0-.8-.7-1.5-1.4-1.5H4.3C3.6 4.2 3 5 3 5.7V15c0 .8.7 1.5 1.4 1.5h14.4zM4.7 5h13.6a.8.8 0 01.8.8v9a.8.8 0 01-.8.8H4.7a.8.8 0 01-.8-.8v-9a.8.8 0 01.8-.8zm0 9.8h13.6v-9H4.7v9zm7.9-7.2h1.6a2.4 2.4 0 012.4 2.4v.8a2.4 2.4 0 01-2.4 2.4h-1.6a.4.4 0 01-.4-.4V8c0-.2.2-.4.4-.4zm.4.8v4h1.2a1.6 1.6 0 001.6-1.6V10a1.6 1.6 0 00-1.6-1.6H13z" id="a"/></defs><g fill="none" fill-rule="evenodd"><mask id="b" fill="#fff"><use xlink:href="#a"/></mask><use fill="#333" fill-rule="nonzero" xlink:href="#a"/><g mask="url(#b)" fill="#292F37"><path d="M0 0h23v23H0z"/></g></g></svg>