<svg width="24" height="24" fill="none" xmlns="http://www.w3.org/2000/svg"><path d="M20.5 22.4h-17c-.8 0-1.4-.6-1.4-1.4V3c0-.8.6-1.4 1.4-1.4h17c.8 0 1.4.6 1.4 1.4v18c0 .8-.6 1.4-1.4 1.4zm-17-20c-.3 0-.6.3-.6.6v18c0 .3.3.6.6.6h17c.3 0 .6-.3.6-.6V3c0-.3-.3-.6-.6-.6h-17z" fill="#333"/><path d="M21 5.4H3c-.2 0-.4-.2-.4-.4s.2-.4.4-.4h18c.2 0 .4.2.4.4s-.2.4-.4.4z" fill="#333"/><path d="M11.4 5h-.8v17h.8V5zM9 15.9H7.5a.4.4 0 01-.4-.4V11c0-.2.2-.4.4-.4H9c.2 0 .4.2.4.4v4.5c0 .2-.2.4-.4.4zm-1.1-.8h.7v-3.7h-.7v3.7zM20 19.4h-7.5c-.2 0-.4-.2-.4-.4s.2-.4.4-.4H20c.2 0 .4.2.4.4s-.2.4-.4.4zM16.9 5h-.8v2h.8V5z" fill="#333"/><path d="M19.4 9.9h-5.8a.7.7 0 01-.6-.4c-.1-.2 0-.5.2-.7l2.9-2.1h.7l2.9 2.1c.2.2.3.4.2.7-.1.3-.3.4-.5.4zm-5.2-.8h4.5l-2.3-1.6-2.2 1.6z" fill="#333"/></svg>