<svg width="23" height="23" xmlns="http://www.w3.org/2000/svg" xmlns:xlink="http://www.w3.org/1999/xlink"><defs><path d="M12.6 17.8a1.5 1.5 0 10-2-2 1.5 1.5 0 002 2zm.6.6A2.3 2.3 0 119.9 15a2.3 2.3 0 013.3 3.3zM7.6 13a.5.5 0 01-.6-.6 6.5 6.5 0 019.1 0 .5.5 0 01-.6.6 5.6 5.6 0 00-7.9 0zM5 10.7a.5.5 0 01-.6-.6c4-4 10.4-4 14.3 0a.5.5 0 01-.6.6 9.3 9.3 0 00-13 0zM2.4 8.3a.5.5 0 11-.6-.6 13.8 13.8 0 0119.5 0 .5.5 0 01-.6.6c-5-5-13.2-5-18.3 0z" id="a"/></defs><g fill="none" fill-rule="evenodd"><mask id="b" fill="#fff"><use xlink:href="#a"/></mask><use fill="#333" fill-rule="nonzero" xlink:href="#a"/><g mask="url(#b)" fill="#292F37"><path d="M0 0h23v23H0z"/></g></g></svg>