<svg width="22" height="17" xmlns="http://www.w3.org/2000/svg"><g fill="#292F37" fill-rule="evenodd"><path d="M11.912 15.047a1.28 1.28 0 0 1-1.801 0 1.271 1.271 0 1 1 1.8-1.801c.496.496.496 1.304 0 1.801M9.265 12.4a2.474 2.474 0 0 0 0 3.498 2.465 2.465 0 0 0 1.748.72c.632 0 1.266-.24 1.748-.72v-.002A2.473 2.473 0 0 0 9.264 12.4M6.323 9.8a.6.6 0 0 0 .848.848 5.436 5.436 0 0 1 7.68 0 .6.6 0 0 0 .848-.848c-2.584-2.586-6.79-2.585-9.376 0"/><path d="M3.728 7.394a.6.6 0 0 0 .848.848c3.548-3.546 9.322-3.548 12.871.001a.6.6 0 0 0 .847-.85c-4.015-4.016-10.55-4.015-14.566.001"/><path d="M20.89 4.988A13.873 13.873 0 0 0 11.01.895c-3.732 0-7.24 1.453-9.878 4.093a.6.6 0 0 0 .848.848 12.688 12.688 0 0 1 9.03-3.741c3.411 0 6.618 1.329 9.03 3.74a.6.6 0 0 0 .848-.847"/></g></svg>