<svg width="21" height="22" xmlns="http://www.w3.org/2000/svg"><g fill="#292F37" fill-rule="evenodd"><path d="M19.96 15.59a4.622 4.622 0 0 1-4.617 4.617H5.535A4.622 4.622 0 0 1 .918 15.59V5.782a4.622 4.622 0 0 1 4.617-4.617h9.808a4.622 4.622 0 0 1 4.617 4.617v9.808zM15.343.364H5.535A5.425 5.425 0 0 0 .117 5.782v9.808a5.425 5.425 0 0 0 5.418 5.418h9.808a5.425 5.425 0 0 0 5.418-5.418V5.782A5.425 5.425 0 0 0 15.343.364z"/><path d="M11.707 11.424H8.124V7.176h3.583c1.172 0 2.124.953 2.124 2.123a2.125 2.125 0 0 1-2.123 2.125m0-5.448H7.523a.599.599 0 0 0-.6.6v8.698a.599.599 0 1 0 1.2 0v-2.65h3.583a3.328 3.328 0 0 0 3.324-3.325 3.328 3.328 0 0 0-3.324-3.323"/><path d="M16.986 15.334a1.9 1.9 0 0 1-1.9 1.899H5.794a1.9 1.9 0 0 1-1.9-1.9V6.04a1.9 1.9 0 0 1 1.9-1.898h9.294a1.9 1.9 0 0 1 1.899 1.898v9.294zm-1.9-12.392H5.794A3.102 3.102 0 0 0 2.695 6.04v9.294a3.102 3.102 0 0 0 3.098 3.099h9.294a3.101 3.101 0 0 0 3.098-3.1V6.04a3.101 3.101 0 0 0-3.098-3.098z"/></g></svg>