<svg width="22" height="21" xmlns="http://www.w3.org/2000/svg"><g fill="#292f37" fill-rule="evenodd"><path d="M6.45 19.495c-.762 0-1.382-.62-1.382-1.383a1.384 1.384 0 0 1 2.766 0c0 .763-.62 1.383-1.383 1.383m0-3.565a2.186 2.186 0 0 0-2.184 2.182c0 1.204.98 2.184 2.184 2.184 1.204 0 2.184-.98 2.184-2.184 0-1.203-.98-2.182-2.184-2.182M15.427 19.495c-.763 0-1.383-.62-1.383-1.383a1.384 1.384 0 1 1 1.383 1.383m0-3.565a2.186 2.186 0 0 0-2.184 2.182c0 1.204.98 2.184 2.184 2.184 1.203 0 2.183-.98 2.183-2.184 0-1.203-.98-2.182-2.183-2.182M3.208 14.947a.952.952 0 0 1-1.628-.674c0-.255.1-.494.28-.674l3.026-3.025a.943.943 0 0 1 .673-.28c.244 0 .489.093.673.279l.675.675-3.7 3.699zM9.873 3.212a2.094 2.094 0 0 1 4.186 0 2.094 2.094 0 0 1-4.186 0zM20.48 1.279a2.52 2.52 0 0 0-1.794-.744 2.518 2.518 0 0 0-1.793.745L14.85 3.323c.002-.037.01-.073.01-.111A2.897 2.897 0 0 0 11.968.318a2.897 2.897 0 0 0-2.894 2.894 2.897 2.897 0 0 0 2.894 2.893c.038 0 .073-.01.111-.012L7.481 10.69l-.681-.683a1.756 1.756 0 0 0-2.481 0l-3.026 3.025a1.741 1.741 0 0 0-.512 1.24c0 .469.181.909.513 1.24.33.33.77.513 1.24.513.469 0 .909-.182 1.24-.513l.955-.955a.437.437 0 0 0 .08.034c.013.004.022.014.037.018.157.039 3.895.97 6.302 1.09.066.003.13.005.197.005.993 0 1.91-.375 2.662-1.092 1.188-1.13 1.867-3.056 1.867-5.283V6.5a.6.6 0 0 0-1.199 0v2.83c0 1.9-.545 3.51-1.495 4.415-.566.537-1.226.806-1.973.756-1.543-.076-3.746-.525-5.029-.812L17.742 2.128a1.334 1.334 0 0 1 1.892-.001 1.34 1.34 0 0 1 0 1.892.598.598 0 1 0 .848.848 2.537 2.537 0 0 0 0-3.588zM11.837 17.71h-1.672a.4.4 0 0 0 0 .802h1.672a.4.4 0 0 0 0-.801"/></g></svg>
