<svg width="23" height="21" xmlns="http://www.w3.org/2000/svg"><g fill="#292F37" fill-rule="evenodd"><path d="M22.055 14.77c-1.16.099-1.82.52-2.459.929-.662.424-1.288.824-2.543.824-1.249 0-1.865-.404-2.519-.831-.687-.451-1.467-.962-2.956-.962-1.488 0-2.268.51-2.956.962-.652.427-1.268.83-2.517.83-1.252 0-1.876-.4-2.537-.823-.637-.408-1.295-.83-2.454-.93a.388.388 0 0 0-.433.365.4.4 0 0 0 .364.433c.962.082 1.511.433 2.091.806.695.445 1.482.95 2.97.95 1.486 0 2.266-.511 2.954-.962.652-.427 1.27-.831 2.518-.831 1.25 0 1.866.404 2.52.83.686.452 1.467.963 2.955.963 1.49 0 2.278-.505 2.975-.95.582-.373 1.131-.724 2.095-.806a.402.402 0 0 0 .365-.433c-.019-.22-.192-.376-.433-.364M8.707 12.546c-.646.443-1.205.826-2.389.826-.582 0-1.061-.092-1.508-.291a.4.4 0 1 0-.325.732c.552.245 1.135.359 1.833.359 1.433 0 2.181-.513 2.843-.966.646-.443 1.205-.826 2.389-.826a.4.4 0 1 0 0-.8c-1.433 0-2.182.513-2.843.966M15.262 13.113a.4.4 0 0 0-.31.737c.514.217 1.081.322 1.733.322 1.432 0 2.19-.507 2.86-.955.552-.37 1.074-.72 1.988-.8a.4.4 0 0 0 .363-.434.406.406 0 0 0-.434-.363c-1.117.099-1.779.542-2.363.933-.657.439-1.225.819-2.414.819-.55 0-1.003-.082-1.423-.26M20.352 18.264c-.27.14-.514.297-.757.455-.66.427-1.284.83-2.543.83-1.249 0-1.865-.403-2.518-.83-.688-.45-1.468-.961-2.956-.961-1.489 0-2.269.51-2.956.962-.653.427-1.269.83-2.518.83-1.255 0-1.877-.404-2.536-.831a9.139 9.139 0 0 0-.75-.452.4.4 0 1 0-.369.71c.244.127.464.27.683.413.695.45 1.481.96 2.972.96 1.487 0 2.268-.511 2.955-.961.652-.427 1.27-.831 2.52-.831 1.248 0 1.864.404 2.517.83.688.45 1.468.962 2.956.962 1.495 0 2.282-.51 2.978-.96.221-.144.443-.288.69-.415a.4.4 0 1 0-.368-.711"/><path d="M3.623 9.133h9.129V6.092H3.623v3.041zm-.599 4.478a.6.6 0 0 0 .6-.6V9.933h9.128v3.078a.6.6 0 1 0 1.2 0V2.323c0-.619.505-1.123 1.124-1.123.619 0 1.124.504 1.124 1.123a.599.599 0 1 0 1.199 0A2.326 2.326 0 0 0 15.076 0a2.326 2.326 0 0 0-2.324 2.323v2.97H3.624v-2.97a1.125 1.125 0 0 1 2.248 0 .599.599 0 1 0 1.199 0A2.326 2.326 0 0 0 4.748 0a2.326 2.326 0 0 0-2.324 2.323v10.688a.6.6 0 0 0 .6.6z"/></g></svg>