<svg width="18" height="21" xmlns="http://www.w3.org/2000/svg"><g fill="#292F37" fill-rule="evenodd"><path d="M11.729 6.645a13.23 13.23 0 0 0-2.854-.216 12.03 12.03 0 0 0-2.5.327v-.62c0-.842.686-1.526 1.528-1.526h2.3c.841 0 1.526.684 1.526 1.526v.51zm-1.526-3.234h-2.3a2.729 2.729 0 0 0-2.727 2.725V7.55a.6.6 0 0 0 .786.571c.908-.296 1.9-.46 2.948-.492 1.171-.033 2.266.084 3.265.348a.602.602 0 0 0 .52-.104.604.604 0 0 0 .233-.476v-1.26a2.728 2.728 0 0 0-2.725-2.725z"/><path d="M14.756 18.73c-.42.456-1.054.718-1.736.718H5.33c-.679 0-1.305-.256-1.719-.702a7.576 7.576 0 0 1-2.007-4.755c-.09-1.765.487-3.234 1.714-4.365a.6.6 0 0 0 .192-.44v-3.05a4.397 4.397 0 0 1 4.392-4.39h2.3a4.397 4.397 0 0 1 4.392 4.39v2.657c0 .181.081.353.223.467 1.29 1.044 1.944 2.505 1.944 4.344a7.55 7.55 0 0 1-2.005 5.126m1.037-10.215V6.136a5.597 5.597 0 0 0-5.59-5.59h-2.3a5.597 5.597 0 0 0-5.592 5.59V8.93C.961 10.273.303 12.04.404 14.051c.104 2.043.93 4 2.327 5.51.64.69 1.587 1.086 2.598 1.086h7.691c1.017 0 1.971-.402 2.62-1.105a8.742 8.742 0 0 0 2.32-5.938c0-2.08-.748-3.834-2.167-5.089"/><path d="M7.353 10.573a.399.399 0 0 0-.448.154l-1.174 1.7a.4.4 0 0 0 .658.456l.444-.645v4.264a.401.401 0 0 0 .801 0v-5.547a.4.4 0 0 0-.281-.382M11.693 15.07a1.031 1.031 0 0 1-2.062 0v-.54a1.032 1.032 0 0 1 2.062 0v.54zm-1.03-2.37c-.383 0-.738.118-1.032.319v-.577a1.088 1.088 0 0 1 1.917-.703.4.4 0 1 0 .61-.518 1.89 1.89 0 0 0-3.327 1.221v2.748c0 .042.01.08.024.12.119.896.88 1.592 1.808 1.592a1.834 1.834 0 0 0 1.83-1.832v-.54c0-1.01-.821-1.83-1.83-1.83z"/></g></svg>
