<svg width="26" height="18" xmlns="http://www.w3.org/2000/svg"><g fill="#292F37" fill-rule="evenodd"><path d="M24.772 1.879L24.577 2c-.467.29-.795.76-.91 1.298l-.85 4.47c-.089.418.039.851.342 1.153l.853.836-.16 6.326a.18.18 0 0 0 .18.184h.845c.1 0 .18-.08.18-.18V2.035a.186.186 0 0 0-.285-.157M2.42 1.992v4.003c0 .554-.309.775-.604.775-.297 0-.606-.221-.606-.775V1.992A1.21 1.21 0 0 0 0 3.202V6.14c0 .925.488 1.745 1.21 2.042v7.905c0 .099.081.18.181.18h.85c.1 0 .18-.081.18-.18V8.183c.722-.297 1.21-1.117 1.21-2.042V3.2a1.21 1.21 0 0 0-1.21-1.21M13.048 16.042c-3.862 0-7.005-3.143-7.005-7.004 0-3.862 3.143-7.005 7.005-7.005 3.861 0 7.004 3.143 7.004 7.005 0 3.86-3.143 7.004-7.004 7.004m0-15.208c-4.524 0-8.204 3.68-8.204 8.204 0 4.524 3.68 8.203 8.204 8.203 4.523 0 8.203-3.68 8.203-8.203 0-4.524-3.68-8.204-8.203-8.204"/><path d="M13.048 13.307a4.276 4.276 0 0 1-4.27-4.27 4.276 4.276 0 0 1 4.27-4.27 4.275 4.275 0 0 1 4.27 4.27 4.275 4.275 0 0 1-4.27 4.27m0-9.34a5.078 5.078 0 0 0-5.07 5.07 5.077 5.077 0 0 0 5.07 5.071 5.076 5.076 0 0 0 5.07-5.07 5.077 5.077 0 0 0-5.07-5.072"/></g></svg>
