<svg width="22" height="21" xmlns="http://www.w3.org/2000/svg"><path d="M2.2 15.6h4.5V14H2.2v1.6zm0 3.5h4.5v-2.7H2.2v2.7zm19-6.3H.7a.6.6 0 000 1.2H1v5.5a.6.6 0 00.6.6l.5-.2h5a.4.4 0 00.4-.4V14h12.2v5.5a.6.6 0 001.2 0V14h.4a.6.6 0 100-1.2zM9.5 10.7a.6.6 0 000 1.2h4.3a.6.6 0 100-1.2H9.4zm-3-9.4h10.3c.4 0 .7.3.7.6v4.4H5.7V1.9c0-.3.3-.7.7-.7m10.3 7.5H6.4a.7.7 0 01-.7-.7V7h11.7v1a.7.7 0 01-.7.7M6.4 9.9h10.3a1.9 1.9 0 001.9-2V2c0-1-.9-1.8-1.9-1.8H6.4c-1 0-1.9.8-1.9 1.8v6c0 1.1.8 2 1.9 2" fill="#292F37" fill-rule="evenodd"/></svg>