<svg width="16" height="17" xmlns="http://www.w3.org/2000/svg"><g fill="#292f37" fill-rule="evenodd"><path d="M9.6 16.1v-2.8a1.5 1.5 0 00-3 0v2.8H2.6v-4l3-2V6.8L8.3 5l2.5 1.9v2.9l.1.3 3 2v4H9.6zm-2.2 0v-2.8a.8.8 0 011.5 0v2.8H7.4zm-4-8.4a1 1 0 011.3-1l-.4.3a.3.3 0 10.5.5v2l-1.5 1.2v-3zm9.5 0v3l-1.5-1.1V7.4l.2.2A.3.3 0 1012 7l-.5-.4h.3c.6 0 1.1.5 1.1 1zm2.4 8.4h-.8v-3.4l.3.1.2-.1v-.5l-.7-.5-.7-.5V7.6c0-1-.8-1.8-1.8-1.8l-.9.3-2.4-1.8V2.8h.9a.3.3 0 100-.7h-.9V.8a.3.3 0 00-.7 0v1.3h-.9a.3.3 0 100 .7h.9v1.6L5.3 6.2c-.2-.2-.6-.3-.9-.3-1 0-1.8.8-1.8 1.8V11l-.7.6-.6.5a.4.4 0 10.4.5V16H1a.3.3 0 100 .7h14.3a.3.3 0 100-.7z"/><path d="M5.2 12.2c-.2 0-.3.1-.3.3V14a.3.3 0 00.7 0v-1.4c0-.2-.2-.3-.4-.3m5.8 0c-.2 0-.4.1-.4.3V14a.3.3 0 00.7 0v-1.4c0-.2-.1-.3-.3-.3M8 9a.6.6 0 010-1.2.6.6 0 010 1.2m0-1.9a1.3 1.3 0 100 2.6 1.3 1.3 0 000-2.6"/></g></svg>