<svg width="18" height="20" xmlns="http://www.w3.org/2000/svg"><g fill="#292f37" fill-rule="evenodd"><path d="M8.8 9.5c-.5 0-1 0-1.4.2a.6.6 0 00.3 1.1 4 4 0 015 4 4 4 0 01-4 4 4 4 0 01-3.8-5 .6.6 0 00-.5-.7.6.6 0 00-.7.5 5.2 5.2 0 005 6.3 5.2 5.2 0 005.3-5.2 5.2 5.2 0 00-5.2-5.2M6.9.8a1.4 1.4 0 011.3 1.5c0 .8-.7 1.4-1.5 1.3a1.4 1.4 0 01-1.3-1.5A1.4 1.4 0 016.9.8m-.3 3.6a2.2 2.2 0 002.4-2A2.2 2.2 0 007 0C5.8-.1 4.7.8 4.6 2c0 .6.1 1.2.5 1.7.4.4 1 .7 1.5.7"/><path d="M6.2 13.8c.2 0 .4 0 .6-.2a1.2 1.2 0 00.5-1.7L6 10l.8-1a.4.4 0 10-.6-.5l-1 1.2a.4.4 0 000 .5l1.4 2.2a.4.4 0 01-.2.6.4.4 0 01-.6-.1l-2-2.7a.6.6 0 010-.6l1.7-3.2a1 1 0 01.9-.5h1c.4 0 .7.3 1 .7l1.4 2.2a.4.4 0 00.7-.4L9 6.1a1.8 1.8 0 00-1.6-1h-1c-.6 0-1.2.3-1.6.8L3.1 9v.2a1.4 1.4 0 000 1.5l2.1 2.7c.2.3.6.5 1 .5m7.3-2.8h.8c.6 0 1.1.5 1.4 1l1 3.6a.6.6 0 010 .5.6.6 0 01-.3.3c-.3.1-.6 0-.7-.2l-1-3.3a.4.4 0 10-.8.2l1 3.4a1.4 1.4 0 001.8.7 1.4 1.4 0 00.8-1.8l-1-3.6a2.4 2.4 0 00-2.2-1.6h-.8a.4.4 0 000 .8M3.4 6.4l-.3-1a.6.6 0 00-.5-.4H.9a.6.6 0 100 1.2h1.2l.1.4a.6.6 0 00.7.5.6.6 0 00.5-.7M17 17.9h-2.8a.6.6 0 000 1.2H17a.6.6 0 100-1.2"/></g></svg>