<svg width="22" height="17" xmlns="http://www.w3.org/2000/svg"><g fill="#292F37" fill-rule="evenodd"><path d="M12 15a1.3 1.3 0 01-1.9 0 1.3 1.3 0 111.8-1.8c.5.5.5 1.4 0 1.8m-2.6-2.6a2.5 2.5 0 000 3.5 2.5 2.5 0 001.7.7c.6 0 1.3-.2 1.8-.7a2.5 2.5 0 00-3.5-3.5m-3-2.6a.6.6 0 00.9.8 5.4 5.4 0 017.7 0 .6.6 0 00.8-.8 6.6 6.6 0 00-9.4 0"/><path d="M3.7 7.4a.6.6 0 00.9.8 9.1 9.1 0 0112.8 0 .6.6 0 00.9-.8c-4-4-10.6-4-14.6 0"/><path d="M20.9 5A13.9 13.9 0 0011 .9c-3.7 0-7.2 1.4-9.9 4A.6.6 0 002 6 12.7 12.7 0 0111 2c3.4 0 6.6 1.3 9 3.7A.6.6 0 0021 5"/></g></svg>