<svg width="26" height="18" xmlns="http://www.w3.org/2000/svg"><g fill="#292F37" fill-rule="evenodd"><path d="M24.8 1.9l-.2.1a2 2 0 00-1 1.3l-.8 4.5c0 .4 0 .8.4 1.1l.8.9L24 16a.2.2 0 00.1.2h.9l.2-.2V2a.2.2 0 00-.3-.2m-22.4 0V6c0 .5-.3.8-.6.8s-.6-.3-.6-.8V2A1.2 1.2 0 000 3.2v3c0 .9.5 1.7 1.2 2V16s0 .2.2.2h.8l.2-.2V8c.7-.2 1.2-1 1.2-2V3.2A1.2 1.2 0 002.4 2M13 16a7 7 0 110-14 7 7 0 010 14M13 .8a8.2 8.2 0 100 16.5A8.2 8.2 0 0013 .8"/><path d="M13 13.3A4.3 4.3 0 018.8 9 4.3 4.3 0 0113 4.8 4.3 4.3 0 0117.3 9a4.3 4.3 0 01-4.3 4.3M13 4a5 5 0 00-5 5 5 5 0 005 5.1 5 5 0 005.1-5 5 5 0 00-5-5.1"/></g></svg>