<svg width="628" height="689" xmlns="http://www.w3.org/2000/svg"><g fill="none" fill-rule="evenodd"><path d="M.6 147.3a344.4 344.4 0 117.7 405" fill="#0039A6"/><path d="M46.9 545.4s0-120.4-1.2-134c0-13.2-6.4-88.5-5-101.2l3.5.1 45.2 227.8 63.3-11.2 36.8-211h4.1c2 13-3.3 74.2-3.3 87.3-1.1 13.6-1.1 117.1-1.1 117.1l64-11.1V191.5l-100-17.3-28 194.6c-1 0-28.5-204.5-28.5-204.5L0 147.4l7.9 404.9m446-109.8l30.9-4 4 29.5 36-6.2-34.5-228.6-43-7.5L403.8 483l45.8-8.1zM270 276.3l48.6 4.3v217.1l59.3-10.3V285.8l38.4 3.2v-69.2l-146.3-25.4z" fill="#FFF"/><path fill="#0039A6" d="M467.7 310.9l-6.9 76.6 17.8-1.1-6.6-75.5z"/></g></svg>