<svg width="21" height="22" xmlns="http://www.w3.org/2000/svg"><g fill="#292F37" fill-rule="evenodd"><path d="M20 15.6a4.6 4.6 0 01-4.7 4.6H5.5A4.6 4.6 0 011 15.6V5.8a4.6 4.6 0 014.6-4.6h9.8A4.6 4.6 0 0120 5.8v9.8zM15.3.4H5.5A5.4 5.4 0 00.1 5.8v9.8A5.4 5.4 0 005.5 21h9.8a5.4 5.4 0 005.5-5.4V5.8A5.4 5.4 0 0015.3.4z"/><path d="M11.7 11.4H8.1V7.2h3.6c1.2 0 2.1 1 2.1 2.1a2.1 2.1 0 01-2 2.1m0-5.4H7.4a.6.6 0 00-.6.6v8.7a.6.6 0 101.2 0v-2.7h3.6A3.3 3.3 0 0015 9.3 3.3 3.3 0 0011.7 6"/><path d="M17 15.3a1.9 1.9 0 01-2 2H5.9a1.9 1.9 0 01-2-2V6a1.9 1.9 0 012-1.9H15a1.9 1.9 0 011.9 2v9.2zM15 3H5.9A3.1 3.1 0 002.7 6v9.3a3.1 3.1 0 003 3.1h9.4a3.1 3.1 0 003-3V6a3.1 3.1 0 00-3-3z"/></g></svg>