<svg width="16" height="20" xmlns="http://www.w3.org/2000/svg"><g fill="#292f37" fill-rule="evenodd"><path d="M5.4 5.5a.8.8 0 111.7 0 .8.8 0 01-1.7 0m2.3 0a1.5 1.5 0 10-3 0 1.5 1.5 0 003 0m2.4-.8a.8.8 0 110 1.7.8.8 0 010-1.7m0 2.4a1.5 1.5 0 100-3 1.5 1.5 0 000 3"/><path d="M14.8 8h-1.6c.2-.6.3-1.3.3-2h1.3v2zm-6.6 8c-2.5 0-4.8-3-5.9-7.2h1C4 12 6 14.2 8.1 14.2c2.1 0 4-2.2 4.9-5.4h.9c-1 4.3-3.4 7.1-5.8 7.1zM1.7 6h1l.4 2H1.7V6zm2-3.4a10 10 0 019 0l.2 2.4c0 4.7-2.1 8.5-4.7 8.5S3.4 9.7 3.4 5l.2-2.4zM15 5.2h-1.5V5c0-1-.1-1.9-.3-2.8 0 0 0-.2-.2-.2a10.7 10.7 0 00-10 0l-.1.3L2.7 5v.2H1.4c-.2 0-.3.2-.3.4v2.8c0 .2.1.4.3.4h.3c1 4.6 3.5 7.6 6.2 7.8V19c0 .2.2.3.4.3s.3-.1.3-.3v-2.3c2.8-.2 5.2-3.2 6.2-7.8h.4c.2 0 .4-.2.4-.4V5.6c0-.2-.2-.4-.4-.4z"/><path d="M8.2 11.1c.2 0 .3-.1.3-.3V8.7a.3.3 0 00-.7 0v2c0 .3.2.4.4.4"/></g></svg>