<svg width="512" height="336" xmlns="http://www.w3.org/2000/svg"><g fill="none" fill-rule="evenodd"><path d="M473.7.3H38.3A38.3 38.3 0 000 38.6v258.8a38.3 38.3 0 0038.3 38.3h435.4a38.3 38.3 0 0038.3-38.3V38.6A38.3 38.3 0 00473.7.3z" fill="#F5F5F5"/><path d="M2.1 26H510A38.4 38.4 0 00473.7.4H38.3C21.6.3 7.3 11 2.1 26zM0 103.6h512v25.8H0zm0-51.6h512v25.8H0zM0 172a8.8 8.8 0 008.8 8.8H512v-25.8H0v17zm0 86.2h512v25.8H0zM509.9 310H2a38.4 38.4 0 0036.2 25.8h435.4c16.7 0 31-10.8 36.2-25.8zM0 206.7h512v25.8H0z" fill="#E6000D"/><path d="M8.8 180.9h220.7a8.8 8.8 0 008.8-8.8V9a8.8 8.8 0 00-8.8-8.8H38.3A38.3 38.3 0 000 38.6v133.5a8.8 8.8 0 008.8 8.8z" fill="#3741CF"/><path d="M24.8 20.5l2 5.9h6.1c.8 0 1.2 1 .5 1.5l-5 3.7 1.9 5.9a.8.8 0 01-1.3 1l-5-3.7-5 3.6a.8.8 0 01-1.3-.9l1.9-5.9-5-3.7a.8.8 0 01.5-1.5h6.2l2-5.9a.8.8 0 011.5 0zm0 30.7l2 5.9h6.1c.8 0 1.2 1 .5 1.5l-5 3.7 1.9 5.9a.8.8 0 01-1.3.9l-5-3.6-5 3.6a.8.8 0 01-1.3-1l1.9-5.8-5-3.7a.8.8 0 01.5-1.5h6.2l2-6a.8.8 0 011.5 0zm0 30.6l2 6h6.1c.8 0 1.2 1 .5 1.5l-5 3.6 1.9 6a.8.8 0 01-1.3.8l-5-3.5-5 3.5a.8.8 0 01-1.3-.9l1.9-5.9-5-3.6a.8.8 0 01.5-1.5h6.2l2-6a.8.8 0 011.5 0zm0 30.7l2 5.9h6.1c.8 0 1.2 1 .5 1.5l-5 3.7 1.9 5.9a.8.8 0 01-1.3.9l-5-3.6-5 3.6a.8.8 0 01-1.3-1l1.9-5.8-5-3.7a.8.8 0 01.5-1.5h6.2l2-5.9a.8.8 0 011.5 0zm0 30.7l2 5.8h6.1c.8 0 1.2 1 .5 1.6l-5 3.6 1.9 6a.8.8 0 01-1.3.9l-5-3.6-5 3.6a.8.8 0 01-1.3-1l1.9-5.9-5-3.6a.8.8 0 01.5-1.5h6.2l2-6a.8.8 0 011.5 0zM48.6 35.6l2 5.8h6.1c.8 0 1.1 1.1.5 1.6l-5 3.6 1.9 6a.8.8 0 01-1.3.9l-5-3.6-5 3.6a.8.8 0 01-1.3-1l1.9-5.9-5-3.6a.8.8 0 01.5-1.5H45l2-6a.8.8 0 011.6 0zm0 30.6l2 5.9h6.1c.8 0 1.1 1 .5 1.5l-5 3.7 1.9 5.9a.8.8 0 01-1.3 1l-5-3.7-5 3.6a.8.8 0 01-1.3-1l1.9-5.8-5-3.7a.8.8 0 01.5-1.5H45l2-5.9a.8.8 0 011.6 0zm0 30.7l2 5.8h6.1c.8 0 1.1 1.1.5 1.6l-5 3.7 1.9 5.8a.8.8 0 01-1.3 1l-5-3.6-5 3.6a.8.8 0 01-1.3-1l1.9-5.8-5-3.7a.8.8 0 01.5-1.5H45l2-6a.8.8 0 011.6 0zm0 30.6l2 5.9h6.1c.8 0 1.1 1 .5 1.5l-5 3.7 1.9 5.9a.8.8 0 01-1.3 1l-5-3.7-5 3.6a.8.8 0 01-1.3-.9l1.9-5.9-5-3.7a.8.8 0 01.5-1.5H45l2-5.9a.8.8 0 011.6 0zm23.8-107l2 5.9h6.1c.8 0 1.1 1 .5 1.5l-5 3.7 1.9 5.9a.8.8 0 01-1.3 1l-5-3.7-5 3.6a.8.8 0 01-1.3-.9l1.8-5.9-5-3.7a.8.8 0 01.6-1.5h6.1l2-5.9a.8.8 0 011.6 0zm0 30.7l2 5.9h6.1c.8 0 1.1 1 .5 1.5l-5 3.7 1.9 5.9a.8.8 0 01-1.3.9l-5-3.6-5 3.6a.8.8 0 01-1.3-1l1.8-5.8-5-3.7a.8.8 0 01.6-1.5h6.1l2-6a.8.8 0 011.6 0zm0 30.6l2 6h6.1c.8 0 1.1 1 .5 1.5l-5 3.6 1.9 6a.8.8 0 01-1.3.8l-5-3.6-5 3.6a.8.8 0 01-1.3-.9L67 93l-5-3.6a.8.8 0 01.6-1.5h6.1l2-6a.8.8 0 011.6 0zm0 30.7l2 5.9h6.1c.8 0 1.1 1 .5 1.5l-5 3.7 1.9 5.9a.8.8 0 01-1.3.9l-5-3.6-5 3.6a.8.8 0 01-1.3-1l1.8-5.8-5-3.7a.8.8 0 01.6-1.5h6.1l2-5.9a.8.8 0 011.6 0zm0 30.7l2 5.8h6.1c.8 0 1.1 1 .5 1.6l-5 3.6 1.9 6a.8.8 0 01-1.3.9l-5-3.6-5 3.5a.8.8 0 01-1.3-.9l1.8-5.9-5-3.6a.8.8 0 01.6-1.5h6.1l2-6a.8.8 0 011.6 0zM96.2 35.6l2 5.8h6.1c.8 0 1.1 1.1.5 1.6l-5 3.6 1.9 6a.8.8 0 01-1.3.9l-5-3.6-5 3.6a.8.8 0 01-1.3-1l1.8-5.9-5-3.6a.8.8 0 01.6-1.5h6.1l2-6a.8.8 0 011.6 0zm0 30.6l2 5.9h6.1c.8 0 1.1 1 .5 1.5l-5 3.7 1.9 5.9a.8.8 0 01-1.3 1l-5-3.7-5 3.6a.8.8 0 01-1.3-1l1.8-5.8-5-3.7a.8.8 0 01.6-1.5h6.1l2-5.9a.8.8 0 011.6 0zm0 30.7l2 5.8h6.1c.8 0 1.1 1.1.5 1.6l-5 3.7 1.9 5.8a.8.8 0 01-1.3 1l-5-3.6-5 3.6a.8.8 0 01-1.3-1l1.8-5.8-5-3.7a.8.8 0 01.6-1.5h6.1l2-6a.8.8 0 011.6 0zm0 30.6l2 5.9h6.1c.8 0 1.1 1 .5 1.5l-5 3.7 1.9 5.9a.8.8 0 01-1.3 1l-5-3.7-5 3.6a.8.8 0 01-1.3-.9l1.8-5.9-5-3.7a.8.8 0 01.6-1.5h6.1l2-5.9a.8.8 0 011.6 0zm23.8-107l2 5.9h6c.9 0 1.2 1 .6 1.5l-5 3.7 1.9 5.9a.8.8 0 01-1.3 1l-5-3.7-5 3.6a.8.8 0 01-1.3-.9l1.8-5.9-5-3.7a.8.8 0 01.6-1.5h6.1l2-5.9a.8.8 0 011.6 0zm0 30.7l2 5.9h6c.9 0 1.2 1 .6 1.5l-5 3.7 1.9 5.9a.8.8 0 01-1.3.9l-5-3.6-5 3.6a.8.8 0 01-1.3-1l1.8-5.8-5-3.7a.8.8 0 01.6-1.5h6.1l2-6a.8.8 0 011.6 0zm0 30.6l2 6h6c.9 0 1.2 1 .6 1.5l-5 3.6 1.9 6a.8.8 0 01-1.3.8l-5-3.6-5 3.6a.8.8 0 01-1.3-.9l1.8-5.9-5-3.6a.8.8 0 01.6-1.5l6.1-.1 2-5.9a.8.8 0 011.6 0zm0 30.7l2 5.9h6c.9 0 1.2 1 .6 1.5l-5 3.7 1.9 5.9a.8.8 0 01-1.3.9l-5-3.6-5 3.6a.8.8 0 01-1.3-1l1.8-5.8-5-3.7a.8.8 0 01.6-1.5h6.1l2-5.9a.8.8 0 011.6 0zm0 30.7l2 5.8h6c.9 0 1.2 1 .6 1.6l-5 3.6 1.9 6a.8.8 0 01-1.3.9l-5-3.6-5 3.5a.8.8 0 01-1.3-.9l1.8-5.9-5-3.6a.8.8 0 01.6-1.5h6.1l2-6a.8.8 0 011.6 0zm23.8-107.6l2 5.8h6c.9 0 1.2 1.1.6 1.6l-5 3.6 1.9 6a.8.8 0 01-1.3.9l-5-3.6-5 3.6a.8.8 0 01-1.3-1l1.8-5.9-5-3.6a.8.8 0 01.5-1.5h6.2l2-6a.8.8 0 011.6 0zm0 30.6l2 5.9h6c.9 0 1.2 1 .6 1.5l-5 3.7 1.9 5.9a.8.8 0 01-1.3 1l-5-3.7-5 3.6a.8.8 0 01-1.3-1l1.8-5.8-5-3.7a.8.8 0 01.5-1.5h6.2l2-5.9a.8.8 0 011.6 0zm0 30.7l2 5.8h6c.9 0 1.2 1.1.6 1.6l-5 3.7 1.9 5.8a.8.8 0 01-1.3 1l-5-3.6-5 3.6a.8.8 0 01-1.3-1l1.8-5.8-5-3.7a.8.8 0 01.5-1.5h6.2l2-6a.8.8 0 011.6 0zm0 30.6l2 5.9h6c.9 0 1.2 1 .6 1.5l-5 3.7 1.9 5.9a.8.8 0 01-1.3 1l-5-3.7-5 3.6a.8.8 0 01-1.3-.9l1.8-5.9-5-3.7a.8.8 0 01.5-1.5h6.2l2-5.9a.8.8 0 011.6 0zm23.7-107l2 5.9h6.2c.8 0 1.1 1 .5 1.5l-5 3.7 1.9 5.9a.8.8 0 01-1.3 1l-5-3.7-5 3.6a.8.8 0 01-1.3-.9l1.8-5.9-5-3.7a.8.8 0 01.5-1.5h6.2l2-5.9a.8.8 0 011.5 0zm0 30.7l2 5.9h6.2c.8 0 1.1 1 .5 1.5l-5 3.7 1.9 5.9a.8.8 0 01-1.3.9l-5-3.6-5 3.6a.8.8 0 01-1.3-1l1.8-5.8-5-3.7a.8.8 0 01.5-1.5h6.2l2-6a.8.8 0 011.5 0zm0 30.6l2 6h6.2c.8 0 1.1 1 .5 1.5l-5 3.6 1.9 6a.8.8 0 01-1.3.8l-5-3.6-5 3.6a.8.8 0 01-1.3-.9l1.8-5.9-5-3.6a.8.8 0 01.5-1.5h6.2l2-6a.8.8 0 011.5 0zm0 30.7l2 5.9h6.2c.8 0 1.1 1 .5 1.5l-5 3.7 1.9 5.9a.8.8 0 01-1.3.9l-5-3.6-5 3.6a.8.8 0 01-1.3-1l1.8-5.8-5-3.7a.8.8 0 01.5-1.5h6.2l2-5.9a.8.8 0 011.5 0zm0 30.7l2 5.8h6.2c.8 0 1.1 1 .5 1.6l-5 3.6 1.9 6a.8.8 0 01-1.3.9l-5-3.6-5 3.5a.8.8 0 01-1.3-.9l1.8-5.9-5-3.6a.8.8 0 01.5-1.5h6.2l2-6a.8.8 0 011.5 0zm23.8-107.6l2 5.8h6.2c.8 0 1.1 1.1.5 1.6l-5 3.6 1.9 6a.8.8 0 01-1.3.9l-5-3.6-5 3.6a.8.8 0 01-1.3-1l1.8-5.9-5-3.6a.8.8 0 01.5-1.5h6.2l2-6a.8.8 0 011.5 0zm0 30.6l2 5.9h6.2c.8 0 1.1 1 .5 1.5l-5 3.7 1.9 5.9a.8.8 0 01-1.3 1l-5-3.7-5 3.6a.8.8 0 01-1.3-1l1.8-5.8-5-3.7a.8.8 0 01.5-1.5h6.2l2-5.9a.8.8 0 011.5 0zm0 30.7l2 5.8h6.2c.8 0 1.1 1.1.5 1.6l-5 3.7 1.9 5.8a.8.8 0 01-1.3 1l-5-3.6-5 3.6a.8.8 0 01-1.3-1l1.8-5.8-5-3.7a.8.8 0 01.5-1.5h6.2l2-6a.8.8 0 011.5 0zm0 30.6l2 5.9h6.2c.8 0 1.1 1 .5 1.5l-5 3.7 1.9 5.9a.8.8 0 01-1.3 1l-5-3.7-5 3.6a.8.8 0 01-1.3-.9l1.8-5.9-5-3.7a.8.8 0 01.5-1.5h6.2l2-5.9a.8.8 0 011.5 0zm23.8-107l2 5.9h6.2c.8 0 1.1 1 .5 1.5l-5 3.7 1.8 5.9a.8.8 0 01-1.2 1l-5-3.7-5 3.6a.8.8 0 01-1.4-.9l2-5.9-5-3.7a.8.8 0 01.4-1.5h6.2l2-5.9a.8.8 0 011.5 0zm0 30.7l2 5.9h6.2c.8 0 1.1 1 .5 1.5l-5 3.7 1.8 5.9a.8.8 0 01-1.2.9l-5-3.6-5 3.6a.8.8 0 01-1.4-1l2-5.8-5-3.7a.8.8 0 01.4-1.5h6.2l2-6a.8.8 0 011.5 0zm0 30.6l2 6h6.2c.8 0 1.1 1 .5 1.5l-5 3.6 1.8 6a.8.8 0 01-1.2.8l-5-3.6-5 3.6a.8.8 0 01-1.4-.9l2-5.9-5-3.6a.8.8 0 01.4-1.5h6.2l2-6a.8.8 0 011.5 0zm0 30.7l2 5.9h6.2c.8 0 1.1 1 .5 1.5l-5 3.7 1.8 5.9a.8.8 0 01-1.2.9l-5-3.6-5 3.6a.8.8 0 01-1.4-1l2-5.8-5-3.7a.8.8 0 01.4-1.5h6.2l2-5.9a.8.8 0 011.5 0zm0 30.7l2 5.8h6.2c.8 0 1.1 1 .5 1.6l-5 3.6 1.8 6a.8.8 0 01-1.2.9l-5-3.6-5 3.5a.8.8 0 01-1.4-.9l2-5.9-5-3.6a.8.8 0 01.4-1.5h6.2l2-6a.8.8 0 011.5 0z" fill="#F5F5F5"/></g></svg>